<?xml version="1.0" encoding="UTF-8" standalone="no"?>
<svg
        xmlns:dc="http://purl.org/dc/elements/1.1/"
        xmlns:cc="http://creativecommons.org/ns#"
        xmlns:rdf="http://www.w3.org/1999/02/22-rdf-syntax-ns#"
        xmlns="http://www.w3.org/2000/svg"
        viewBox="0 0 155.89467 101.27213"
        height="101.27213"
        width="155.89467"
        xml:space="preserve"
        id="svg2"
        version="1.1"><metadata
     id="metadata8"><rdf:RDF><cc:Work
         rdf:about=""><dc:format>image/svg+xml</dc:format><dc:type
        rdf:resource="http://purl.org/dc/dcmitype/StillImage"/></cc:Work></rdf:RDF></metadata>
    <defs
            id="defs6"><clipPath
       id="clipPath22"
       clipPathUnits="userSpaceOnUse"><path
         id="path20"
         d="M 0,75.954 H 116.921 V 0 H 0 Z" /></clipPath></defs>
    <g
            transform="matrix(1.3333333,0,0,-1.3333333,0,101.27213)"
            id="g10"><g
       transform="translate(3.7066,69.7665)"
       id="g12"><path
         id="path14"
         style="fill:#012970;fill-opacity:1;fill-rule:nonzero;stroke:none"
         d="M 0,0 V 2.669 H 108.477 V 0 H 13.66 v -66.958 h -2.779 l 0,66.958 z" /></g>
        <g
                id="g16"><g
         clip-path="url(#clipPath22)"
         id="g18"><g
           transform="translate(48.0795,54.7223)"
           id="g24"><path
             id="path26"
             style="fill:#012970;fill-opacity:1;fill-rule:nonzero;stroke:none"
             d="m 0,0 c -1.444,0 -2.776,-0.355 -3.998,-1.064 -1.222,-0.71 -2.193,-1.706 -2.915,-2.99 -0.722,-1.283 -1.083,-2.64 -1.083,-4.071 0,-1.42 0.365,-2.777 1.092,-4.072 0.728,-1.296 1.706,-2.304 2.934,-3.026 1.227,-0.722 2.545,-1.083 3.952,-1.083 1.418,0 2.763,0.358 4.034,1.074 1.271,0.715 2.249,1.684 2.934,2.905 0.685,1.222 1.027,2.598 1.027,4.128 0,2.332 -0.768,4.281 -2.304,5.849 C 4.136,-0.784 2.245,0 0,0 M 10.368,1.983 V -18.178 H 7.811 v 3.466 c -1.088,-1.323 -2.308,-2.317 -3.66,-2.984 -1.353,-0.667 -2.832,-1 -4.438,-1 -2.854,0 -5.29,1.034 -7.31,3.104 -2.02,2.068 -3.03,4.585 -3.03,7.55 0,2.903 1.019,5.386 3.057,7.449 2.039,2.063 4.491,3.094 7.357,3.094 1.655,0 3.153,-0.352 4.493,-1.055 1.341,-0.704 2.517,-1.761 3.531,-3.169 v 3.706 z" /></g><g
                transform="translate(62.3754,56.7054)"
                id="g28"><path
             id="path30"
             style="fill:#012970;fill-opacity:1;fill-rule:nonzero;stroke:none"
             d="M 0,0 H 2.761 L 9.528,-14.696 16.214,0 h 2.779 L 9.766,-20.161 H 9.283 Z" /></g><g
                transform="translate(102.289,48.6631)"
                id="g32"><path
             id="path34"
             style="fill:#012970;fill-opacity:1;fill-rule:nonzero;stroke:none"
             d="m 0,0 c -0.346,1.383 -0.85,2.489 -1.512,3.317 -0.662,0.827 -1.537,1.495 -2.625,2.001 -1.089,0.506 -2.233,0.76 -3.433,0.76 -1.979,0 -3.679,-0.637 -5.101,-1.909 C -13.711,3.243 -14.496,1.853 -15.027,0 Z m 0,-5.429 2.186,-1.149 c -0.717,-1.408 -1.545,-2.545 -2.485,-3.409 -0.94,-0.865 -1.997,-1.523 -3.171,-1.974 -1.175,-0.451 -2.505,-0.676 -3.988,-0.676 -3.289,0 -5.86,1.077 -7.716,3.233 -1.854,2.156 -2.782,4.592 -2.782,7.31 0,2.557 0.786,4.837 2.356,6.838 1.991,2.544 4.655,3.817 7.993,3.817 3.438,0 6.183,-1.304 8.235,-3.91 C 2.087,2.81 2.829,0.512 2.854,-2.242 h -18.141 c 0.049,-2.342 0.797,-4.261 2.244,-5.759 1.448,-1.497 3.235,-2.246 5.363,-2.246 1.026,0 2.024,0.178 2.995,0.536 0.971,0.356 1.797,0.83 2.477,1.421 0.681,0.59 1.416,1.544 2.208,2.861" /></g><g
                transform="translate(57.7187,26.008)"
                id="g36"><path
             id="path38"
             style="fill:#4154f1;fill-opacity:1;fill-rule:nonzero;stroke:none"
             d="m 0,0 -2.569,-2.002 c -1.847,1.495 -3.872,2.629 -6.072,3.401 -2.201,0.772 -4.346,1.158 -6.433,1.158 -2.599,0 -5.074,-0.525 -7.424,-1.575 -2.352,-1.05 -4.173,-2.474 -5.464,-4.271 -1.293,-1.798 -1.939,-3.697 -1.939,-5.698 0,-2.051 0.669,-3.999 2.006,-5.846 1.336,-1.847 3.185,-3.298 5.543,-4.355 2.358,-1.056 4.942,-1.584 7.752,-1.584 3.409,0 6.293,0.79 8.652,2.372 2.358,1.581 3.755,3.632 4.191,6.152 h -10.568 v 2.631 H 1.961 C 1.93,-13.83 0.41,-17.174 -2.602,-19.651 c -3.013,-2.477 -7.042,-3.715 -12.089,-3.715 -6.129,0 -10.981,1.717 -14.556,5.151 -2.749,2.643 -4.124,5.701 -4.124,9.172 0,2.582 0.789,4.985 2.367,7.208 1.576,2.224 3.74,3.963 6.489,5.217 2.749,1.253 5.858,1.88 9.328,1.88 2.809,0 5.453,-0.417 7.932,-1.251 C -4.777,3.178 -2.359,1.84 0,0" /></g><g
                transform="translate(74.0866,21.468)"
                id="g40"><path
             id="path42"
             style="fill:#4154f1;fill-opacity:1;fill-rule:nonzero;stroke:none"
             d="m 0,0 c -2.559,0 -4.759,-0.797 -6.598,-2.39 -1.839,-1.594 -2.758,-3.521 -2.758,-5.782 0,-1.457 0.418,-2.816 1.257,-4.076 0.838,-1.26 1.972,-2.233 3.399,-2.918 1.427,-0.686 2.993,-1.029 4.7,-1.029 1.707,0 3.274,0.343 4.701,1.029 1.427,0.685 2.56,1.658 3.399,2.918 0.838,1.26 1.257,2.619 1.257,4.076 0,2.261 -0.923,4.188 -2.769,5.782 C 4.741,-0.797 2.545,0 0,0 m 0.011,2.538 c 3.687,0 6.741,-1.124 9.165,-3.372 2.203,-2.051 3.305,-4.478 3.305,-7.282 0,-2.816 -1.165,-5.278 -3.493,-7.384 -2.328,-2.106 -5.32,-3.159 -8.977,-3.159 -3.671,0 -6.671,1.053 -8.998,3.159 -2.329,2.106 -3.493,4.568 -3.493,7.384 0,2.792 1.102,5.213 3.305,7.264 2.423,2.26 5.485,3.39 9.186,3.39" /></g><g
                transform="translate(100.5024,21.505)"
                id="g44"><path
             id="path46"
             style="fill:#012970;fill-opacity:1;fill-rule:nonzero;stroke:none"
             d="m 0,0 c -1.627,0 -3.128,-0.355 -4.504,-1.064 -1.376,-0.71 -2.471,-1.706 -3.284,-2.99 -0.814,-1.283 -1.22,-2.64 -1.22,-4.071 0,-1.42 0.41,-2.777 1.23,-4.072 0.82,-1.296 1.922,-2.304 3.305,-3.026 1.383,-0.722 2.867,-1.083 4.452,-1.083 1.599,0 3.114,0.358 4.546,1.074 1.432,0.715 2.534,1.684 3.305,2.905 0.772,1.222 1.157,2.598 1.157,4.128 0,2.332 -0.865,4.281 -2.596,5.849 C 4.66,-0.784 2.53,0 0,0 M 11.681,19.036 V -18.178 H 8.8 v 3.466 c -1.225,-1.323 -2.599,-2.317 -4.123,-2.984 -1.524,-0.667 -3.192,-1 -5,-1 -3.215,0 -5.961,1.034 -8.236,3.104 -2.276,2.068 -3.413,4.585 -3.413,7.55 0,2.903 1.148,5.386 3.444,7.449 2.296,2.063 5.059,3.094 8.288,3.094 1.865,0 3.552,-0.352 5.062,-1.055 1.51,-0.704 2.836,-1.761 3.978,-3.169 v 20.759 z" /></g><g
                transform="translate(25.9644,57.0896)"
                id="g48"><path
             id="path50"
             style="fill:#012970;fill-opacity:1;fill-rule:nonzero;stroke:none"
             d="m 0,0 h 2.65 v -2.946 c 0.79,1.161 1.624,2.028 2.501,2.603 0.877,0.575 1.791,0.861 2.742,0.861 0.717,0 1.483,-0.612 2.298,-1.069 L 8.839,-2.354 C 8.295,-2.119 7.838,-2.002 7.467,-2.002 6.603,-2.002 5.769,-2.357 4.966,-3.067 4.163,-3.778 3.551,-5.264 3.131,-6.758 2.81,-7.908 2.65,-10.23 2.65,-13.726 v -6.819 H 0 Z" /></g><g
                transform="translate(33.5459,57.597)"
                id="g52"><path
             id="path54"
             style="fill:#012970;fill-opacity:1;fill-rule:nonzero;stroke:none"
             d="M 0,0 C 0,0 3.974,0.08 4.794,-0.892 L 3.245,-4.096 c 0,0 -2.825,1.956 -3.691,2.049 C -1.311,-1.955 0,0 0,0" /></g><path
                id="path56"
                style="fill:#012970;fill-opacity:1;fill-rule:nonzero;stroke:none"
                d="m 109.292,62.662 h 2.892 V 36.545 h -2.892 z"/></g></g></g></svg>